<?xml version="1.0" encoding="UTF-8" standalone="no"?>
<!-- Created with Inkscape (http://www.inkscape.org/) -->

<svg
   xmlns:dc="http://purl.org/dc/elements/1.1/"
   xmlns:cc="http://creativecommons.org/ns#"
   xmlns:rdf="http://www.w3.org/1999/02/22-rdf-syntax-ns#"
   xmlns:svg="http://www.w3.org/2000/svg"
   xmlns="http://www.w3.org/2000/svg"
   xmlns:sodipodi="http://sodipodi.sourceforge.net/DTD/sodipodi-0.dtd"
   xmlns:inkscape="http://www.inkscape.org/namespaces/inkscape"
   version="1.1"
   id="svg815"
   width="85.949371"
   height="87.080284"
   viewBox="0 0 85.949374 87.080284"
   sodipodi:docname="favicon.svg"
   inkscape:version="0.92.4 (f8dce91, 2019-08-02)">
  <metadata
     id="metadata821">
    <rdf:RDF>
      <cc:Work
         rdf:about="">
        <dc:format>image/svg+xml</dc:format>
        <dc:type
           rdf:resource="http://purl.org/dc/dcmitype/StillImage" />
        <dc:title></dc:title>
      </cc:Work>
    </rdf:RDF>
  </metadata>
  <defs
     id="defs819" />
  <sodipodi:namedview
     pagecolor="#ffffff"
     bordercolor="#666666"
     borderopacity="1"
     objecttolerance="10"
     gridtolerance="10"
     guidetolerance="10"
     inkscape:pageopacity="0"
     inkscape:pageshadow="2"
     inkscape:window-width="1920"
     inkscape:window-height="960"
     id="namedview817"
     showgrid="false"
     inkscape:zoom="3.6788666"
     inkscape:cx="55.020196"
     inkscape:cy="-6.9031979"
     inkscape:window-x="0"
     inkscape:window-y="27"
     inkscape:window-maximized="1"
     inkscape:current-layer="svg815"
     fit-margin-top="0"
     fit-margin-left="0"
     fit-margin-right="0"
     fit-margin-bottom="0" />
  <path
     style="fill:#000000;stroke-width:0.10281025"
     d="M 0,43.540143 V 0 H 42.974687 85.949368 V 43.540143 87.080281 H 42.974687 0 Z m 19.431138,38.068823 c 0.553286,-0.167569 0.885916,-0.449062 1.067807,-0.903673 0.323359,-0.808148 0.181515,-1.232969 -0.411691,-1.232969 -0.530699,0 -0.656116,0.08977 -0.656116,0.469639 0,0.577102 -0.303867,0.764082 -1.24172,0.764082 -1.111114,0 -1.259028,-0.13183 -1.311399,-1.168797 l -0.03938,-0.779873 1.887399,-0.02804 1.887414,-0.02809 0.02958,-0.951364 c 0.03721,-1.196764 -0.08589,-1.665863 -0.542234,-2.066539 -0.449925,-0.395036 -0.929689,-0.527752 -1.910409,-0.528473 -1.516068,-0.0011 -2.36816,0.496382 -2.513815,1.46772 -0.037,0.246879 -0.05173,1.231956 -0.03265,2.189056 0.03944,1.980374 0.133336,2.277643 0.834328,2.64133 0.702789,0.36462 2.032147,0.434845 2.952905,0.155991 z m -2.570257,-4.177509 c 0,-0.571563 0.177948,-0.997832 0.472597,-1.132079 0.141213,-0.06434 0.557399,-0.116983 0.92485,-0.116983 0.572263,0 0.704305,0.0362 0.92045,0.252354 0.207256,0.20725 0.25236,0.354236 0.25236,0.822481 v 0.570127 H 18.14601 16.860881 Z m 7.666181,4.294757 c 0.335519,-0.06091 0.806669,-0.22478 1.046991,-0.36417 0.401285,-0.232747 0.436944,-0.237973 0.436944,-0.06403 0,0.280973 0.205485,0.436138 0.577605,0.436138 0.696068,0 0.656116,0.20099 0.656116,-3.300928 v -3.176116 h -0.616863 -0.616858 v 2.3487 c 0,2.12462 -0.01755,2.36456 -0.183683,2.514927 -0.517087,0.467954 -1.821807,0.653317 -2.198566,0.312354 -0.171714,-0.155397 -0.188151,-0.376011 -0.189583,-2.544553 -0.0011,-1.305924 -0.03997,-2.434901 -0.08684,-2.508842 -0.05753,-0.09072 -0.266015,-0.124155 -0.640993,-0.102814 l -0.555719,0.03164 -0.02862,2.51885 c -0.02401,2.113112 -0.0021,2.589028 0.136511,2.954496 0.194634,0.513355 0.591128,0.825905 1.199929,0.945878 0.241986,0.04771 0.44304,0.09177 0.446793,0.09796 0.0037,0.0062 0.281345,-0.03859 0.616863,-0.09948 z m 13.00778,-0.157025 c 0.539096,-0.170235 0.938521,-0.55185 1.107823,-1.058404 0.06905,-0.206619 0.116797,-1.069752 0.116797,-2.111526 0,-1.622858 -0.01829,-1.798293 -0.231321,-2.220782 -0.331511,-0.657393 -0.969122,-0.959692 -2.129549,-1.009636 -1.517006,-0.0653 -2.409892,0.287197 -2.742215,1.082559 -0.202013,0.483485 -0.198631,4.044195 0.0042,4.434046 0.163879,0.314984 0.516784,0.65794 0.858145,0.833958 0.61134,0.315227 2.097803,0.339764 3.016106,0.04977 z m -2.336301,-0.978102 c -0.378588,-0.192429 -0.448675,-0.535676 -0.448675,-2.197378 0,-1.525154 0.0091,-1.593523 0.24812,-1.871449 0.232837,-0.270679 0.298058,-0.288458 1.058329,-0.288458 0.602487,0 0.881526,0.04675 1.088411,0.182283 l 0.278206,0.182289 v 1.832281 c 0,2.230927 0.0115,2.209692 -1.218497,2.247731 -0.432471,0.01336 -0.885126,-0.02592 -1.005894,-0.0873 z m 8.598627,1.017879 c 0.868868,-0.263142 1.233721,-0.789134 1.233721,-1.778611 0,-0.651085 -0.178223,-1.071549 -0.560304,-1.3219 -0.144303,-0.09456 -0.846345,-0.375466 -1.560086,-0.624242 -0.71374,-0.248777 -1.347513,-0.502139 -1.408398,-0.563018 -0.173935,-0.17393 -0.131141,-0.81286 0.06775,-1.011756 0.139379,-0.139385 0.356897,-0.178451 0.99359,-0.178451 0.938924,0 1.122808,0.11086 1.224806,0.738394 l 0.06381,0.392518 h 0.512306 0.51231 l -0.0042,-0.537961 c -0.0053,-0.639916 -0.227849,-0.992822 -0.824024,-1.305568 -0.335084,-0.17578 -0.59266,-0.212673 -1.48491,-0.212673 -0.89225,0 -1.149842,0.03689 -1.48492,0.212673 -0.660876,0.346687 -0.828312,0.657372 -0.828312,1.536932 0,0.72113 0.01675,0.775118 0.346163,1.114973 0.269354,0.277904 0.622927,0.453859 1.59356,0.793024 0.68606,0.239734 1.328356,0.505139 1.427311,0.589787 0.119825,0.102507 0.17992,0.302235 0.17992,0.597988 0,0.394044 -0.03647,0.462917 -0.323576,0.611398 -0.237417,0.122771 -0.522451,0.157285 -1.07042,0.129615 -0.886621,-0.04479 -1.176261,-0.234433 -1.176261,-0.770242 V 79.677941 H 40.64877 40.070586 l 0.04707,0.567736 c 0.03689,0.444916 0.109954,0.633365 0.337761,0.871137 0.601841,0.628196 2.143104,0.855176 3.341787,0.492152 z m 6.271426,0 c 0.197905,-0.05994 0.483454,-0.195674 0.634553,-0.301631 0.344694,-0.241716 0.623913,-0.954916 0.580712,-1.483299 l -0.03297,-0.403119 h -0.565457 -0.565456 l -0.0605,0.453392 c -0.08602,0.644608 -0.354056,0.831736 -1.191374,0.831736 -0.642021,0 -1.031385,-0.114529 -1.188293,-0.349523 -0.04156,-0.06222 -0.07624,-0.92715 -0.07711,-1.922071 -0.0016,-1.696046 0.01161,-1.82089 0.209864,-2.000295 0.29765,-0.269371 1.389305,-0.333075 1.827198,-0.106631 0.299319,0.154788 0.36992,0.284822 0.451468,0.831566 0.0255,0.170787 0.122141,0.210892 0.570608,0.236739 0.63248,0.03642 0.699646,-0.04914 0.593588,-0.756391 -0.148295,-0.988867 -0.976135,-1.485148 -2.477371,-1.485148 -0.925741,0 -1.59215,0.182463 -1.984032,0.54323 -0.467366,0.430249 -0.529433,0.755368 -0.529433,2.773017 0,1.750575 0.01633,1.915462 0.231327,2.336281 0.269031,0.526585 0.735649,0.80687 1.545042,0.928078 0.607343,0.09094 1.493153,0.03594 2.027615,-0.125931 z m 9.273948,0.01145 c 0.790893,-0.202076 1.251495,-0.837095 1.193594,-1.645592 l -0.03228,-0.451113 h -0.512316 -0.5123 l -0.06581,0.404879 c -0.09891,0.608462 -0.375322,0.77744 -1.271744,0.77744 -0.598851,0 -0.799195,-0.04198 -1.016712,-0.213081 -0.249069,-0.195922 -0.270881,-0.274395 -0.270881,-0.974327 V 78.75738 l 1.824881,-0.02809 1.824881,-0.02809 0.02878,-1.188231 c 0.0265,-1.093669 0.01007,-1.216393 -0.206975,-1.542153 -0.401853,-0.603245 -0.87542,-0.765163 -2.23785,-0.765163 -1.071952,0 -1.224551,0.02401 -1.634747,0.257024 -0.792611,0.450297 -0.844225,0.647858 -0.810501,3.102785 0.02714,1.975837 0.04447,2.146581 0.245569,2.416041 0.119003,0.159475 0.35624,0.371877 0.52719,0.471999 0.596784,0.349528 1.917682,0.424831 2.927239,0.166884 z M 56.85407,77.257214 c 0,-0.468245 0.04511,-0.61523 0.252344,-0.822481 0.216909,-0.216913 0.347584,-0.252354 0.930406,-0.252354 1.107626,0 1.382991,0.239982 1.386097,1.208018 l 0.0016,0.436944 H 58.139388 56.85426 Z m 15.832778,4.353278 c 0.85912,-0.256494 1.289586,-0.885958 1.216149,-1.778351 l -0.03382,-0.41124 h -0.565456 -0.565457 l -0.03149,0.434018 c -0.04617,0.636678 -0.362023,0.85111 -1.253658,0.85111 -0.544349,0 -0.749722,-0.04543 -0.962835,-0.213081 L 70.2194,80.279867 v -1.827192 c 0,-2.239621 -0.0115,-2.218889 1.233721,-2.218889 0.941929,0 1.203952,0.158043 1.253864,0.756279 l 0.03127,0.374633 h 0.565456 0.565457 l 0.02868,-0.462647 c 0.03859,-0.622594 -0.238286,-1.11457 -0.80996,-1.439344 -0.410191,-0.233034 -0.562785,-0.257025 -1.634737,-0.257025 -0.978907,0 -1.25193,0.03536 -1.586924,0.205617 -0.825587,0.419569 -0.978456,0.893443 -0.978366,3.032905 8.4e-5,2.135587 0.158424,2.635679 0.967754,3.056546 0.614733,0.319675 1.95421,0.371591 2.831263,0.109742 z m 6.271421,-0.0016 c 0.19791,-0.05994 0.4818,-0.194486 0.630868,-0.299001 0.470048,-0.329551 0.774769,-1.418985 0.479483,-1.714265 -0.06785,-0.06785 -0.289921,-0.12337 -0.493487,-0.12337 -0.443607,0 -0.616864,0.149031 -0.616864,0.530603 0,0.507874 -0.341604,0.703113 -1.230233,0.703113 -1.12937,0 -1.23721,-0.09888 -1.23721,-1.134369 v -0.814281 l 1.824882,-0.02809 1.824881,-0.02809 0.02942,-1.065061 c 0.02486,-0.900551 -0.0027,-1.131867 -0.17993,-1.497526 -0.3188,-0.658549 -0.854084,-0.914662 -2.019356,-0.966196 -1.559005,-0.06894 -2.399158,0.306126 -2.699644,1.205193 -0.145857,0.436424 -0.15516,3.620688 -0.01209,4.135781 0.115303,0.415094 0.531552,0.883096 0.923392,1.038186 0.689797,0.273023 1.97598,0.299595 2.775875,0.05734 z m -2.465868,-4.372764 c 0.0011,-0.325139 0.03557,-0.642063 0.07711,-0.704284 0.156776,-0.234787 0.546034,-0.349523 1.185823,-0.349523 0.954089,0 1.20294,0.214226 1.20294,1.035562 v 0.6094 h -1.233721 -1.233722 l 0.0016,-0.591155 z M 8.9874873,81.671679 c 0.1432962,-0.05499 0.1626281,-0.429634 0.1626281,-3.153115 v -3.09071 l 1.7523876,3.072793 c 0.963816,1.69004 1.808147,3.108229 1.876289,3.151541 0.148984,0.09469 0.71153,0.106382 0.937969,0.01951 0.144754,-0.05555 0.162623,-0.541359 0.162623,-4.420842 v -4.358435 h -0.616858 -0.616864 v 3.109999 3.109994 l -0.54191,-0.976681 c -0.298047,-0.537177 -1.091507,-1.938779 -1.763228,-3.114669 l -1.2213228,-2.137983 -0.575708,0.03037 -0.5756975,0.03037 -0.026875,4.254704 c -0.019295,3.055439 0.00599,4.294286 0.089689,4.395139 0.1197554,0.144292 0.6677244,0.188978 0.9568559,0.07803 z m 21.1789147,0 c 0.141557,-0.05432 0.162622,-0.359282 0.162622,-2.354864 v -2.292464 l 0.436944,-0.255461 c 0.40673,-0.237794 0.845031,-0.388972 1.547645,-0.533816 0.27253,-0.05618 0.286529,-0.08584 0.257025,-0.544428 -0.03022,-0.46956 -0.04235,-0.486077 -0.381652,-0.518444 -0.422594,-0.04034 -1.143178,0.219649 -1.544231,0.557113 l -0.293011,0.24655 -0.06742,-0.359414 c -0.06726,-0.358509 -0.06884,-0.35941 -0.628223,-0.35941 h -0.560797 v 3.178549 c 0,2.446643 0.02958,3.190492 0.128512,3.230407 0.185994,0.07505 0.752898,0.07847 0.942587,0.0057 z m 23.695129,-0.07851 c 0.08303,-0.100041 0.109038,-1.031973 0.0897,-3.212818 l -0.02725,-3.071908 -0.555729,-0.03165 c -0.374967,-0.02136 -0.583458,0.01209 -0.640993,0.102814 -0.04691,0.07394 -0.08597,1.485377 -0.08683,3.13653 -0.0016,2.751655 0.01346,3.010832 0.178345,3.106882 0.261806,0.152488 0.906758,0.13401 1.042766,-0.02984 z m 9.454975,0.0042 c 0.07325,-0.08826 0.123195,-0.952504 0.141107,-2.441745 l 0.02772,-2.305127 0.558189,-0.282728 c 0.744713,-0.377204 1.452416,-0.389073 1.811115,-0.03037 l 0.252355,0.252349 v 2.409718 c 0,2.636087 -0.0247,2.534524 0.616863,2.534524 0.64474,0 0.616863,0.124871 0.616863,-2.762776 0,-2.988903 -0.03514,-3.150365 -0.781781,-3.590611 -0.567874,-0.334846 -1.806138,-0.281324 -2.572733,0.111205 -0.54684,0.279998 -0.655087,0.272333 -0.655087,-0.04638 0,-0.159469 -0.08534,-0.18848 -0.554457,-0.18848 -0.410758,0 -0.570635,0.04214 -0.616864,0.162623 -0.03435,0.08944 -0.0624,1.474075 -0.0624,3.076965 0,3.264151 -0.0059,3.237456 0.714424,3.237456 0.215212,0 0.442335,-0.06148 0.504688,-0.136622 z M 53.923975,73.4578 v -0.822481 l -0.496334,-0.03165 c -0.677563,-0.0432 -0.788795,0.0761 -0.788795,0.84617 0,0.786213 0.101775,0.899905 0.770443,0.860663 l 0.514686,-0.03021 z M 22.833158,69.170363 c 0.967532,-0.4834 2.07307,-1.619911 2.311472,-2.376222 0.290494,-0.921547 0.194985,-1.103083 -1.89007,-3.59244 -1.000243,-1.194193 -1.942405,-2.261533 -2.09369,-2.371875 -0.151295,-0.110336 -0.511791,-0.223359 -0.801108,-0.251156 -0.453684,-0.04357 -0.627963,-7.5e-5 -1.267084,0.316414 -0.855617,0.423692 -1.901208,1.393164 -2.225865,2.063815 -0.225114,0.465017 -0.273934,1.119913 -0.114725,1.538686 0.149042,0.392004 3.672556,4.572699 4.045604,4.800156 0.516016,0.314628 1.241673,0.269216 2.035466,-0.127378 z m -1.301964,-1.003779 c -0.184579,-0.07469 -2.872561,-3.197276 -3.363637,-3.907476 -0.349921,-0.506072 -0.165962,-1.158662 0.488638,-1.733416 0.547773,-0.480946 0.9379,-0.649241 1.423288,-0.613969 0.42401,0.0308 0.458932,0.06454 2.10559,2.033228 0.920938,1.101043 1.702963,2.115582 1.737837,2.254527 0.138022,0.549909 -0.667931,1.545381 -1.549309,1.913648 -0.408198,0.170558 -0.533413,0.178504 -0.842407,0.05346 z m 8.059468,-1.156425 c 0.236463,-0.181738 0.429931,-0.36365 0.429931,-0.404249 0,-0.0406 -0.419743,-0.583108 -0.932754,-1.205569 -0.513026,-0.622466 -0.940974,-1.167938 -0.950998,-1.212168 -0.01007,-0.04421 0.174051,-0.113241 0.409062,-0.153363 0.808821,-0.138069 1.831009,-0.820254 2.148213,-1.433646 0.196898,-0.380766 0.188809,-0.950224 -0.01929,-1.357187 -0.2736,-0.535072 -2.584394,-3.241825 -2.912407,-3.411445 -1.01738,-0.526103 -2.405874,0.315699 -2.991563,1.813702 -0.140646,0.359696 -0.17746,0.3907 -0.295334,0.248666 -0.183852,-0.221536 -0.290335,-0.20557 -0.696826,0.104473 -0.230552,0.175854 -0.338953,0.336865 -0.318137,0.472549 0.02968,0.1935 5.510885,6.868667 5.640076,6.868667 0.03308,0 0.253564,-0.148692 0.490026,-0.33043 z M 26.411058,62.18105 c -1.085066,-1.317028 -1.052599,-1.257723 -0.915727,-1.672441 0.275058,-0.833448 1.090817,-1.580017 1.589632,-1.454817 0.128019,0.03212 0.690677,0.614981 1.273488,1.319196 1.247302,1.507115 1.298513,1.697122 0.61505,2.282133 -0.236616,0.202543 -0.595167,0.414082 -0.796777,0.470085 -0.774504,0.215153 -0.838913,0.180714 -1.765666,-0.944156 z m 6.909827,-1.846439 c 0.504004,-0.169732 1.564496,-0.944543 1.911438,-1.396525 0.571674,-0.744766 0.683505,-1.30806 0.379033,-1.909328 -0.383576,-0.757483 -0.66059,-0.85841 -1.099283,-0.400506 -0.311236,0.324858 -0.348659,0.551674 -0.122045,0.739746 0.384058,0.318742 0.08351,0.98575 -0.699858,1.553221 -0.690433,0.500145 -0.864554,0.439017 -1.788614,-0.627931 l -0.222601,-0.257025 1.375767,-1.130913 c 0.756672,-0.622 1.378231,-1.193525 1.381242,-1.270058 0.0093,-0.235249 -1.30674,-1.727872 -1.679253,-1.904637 -0.500171,-0.237348 -0.849053,-0.208051 -1.566982,0.131587 -0.703775,0.332942 -1.648693,1.209571 -1.91994,1.781181 -0.214327,0.45167 -0.222511,0.961802 -0.02163,1.347 0.298063,0.571467 2.557371,3.178983 2.873923,3.316852 0.392264,0.170839 0.74853,0.178965 1.198779,0.02735 z m -2.56387,-3.425889 c -0.168877,-0.192334 -0.336631,-0.442956 -0.372815,-0.556933 -0.09011,-0.283916 0.172075,-0.752182 0.636646,-1.137035 0.679493,-0.562896 1.161403,-0.548324 1.616916,0.04887 0.332057,0.435343 0.351347,0.402123 -0.774642,1.333684 l -0.799072,0.661088 z m 7.381958,-0.440316 0.434055,-0.385537 -0.237819,-0.308431 c -0.130797,-0.169636 -0.805948,-0.988523 -1.500341,-1.819751 -0.694393,-0.831227 -1.262521,-1.560398 -1.262521,-1.620382 0,-0.248644 0.471776,-1.085792 0.792834,-1.406845 0.253643,-0.253648 0.435788,-0.344938 0.688238,-0.344938 0.397878,0 0.503671,0.104643 2.312597,2.287529 0.6443,0.777503 1.223512,1.41364 1.287132,1.41364 0.156824,0 0.882194,-0.605636 0.882194,-0.736581 0,-0.05761 -0.740122,-0.994047 -1.644707,-2.080963 -1.662434,-1.997512 -2.032916,-2.32297 -2.644352,-2.32297 -0.745651,0 -1.92751,1.019225 -2.256736,1.946196 -0.167818,0.472485 -0.177635,0.480484 -0.362654,0.295466 -0.214809,-0.214804 -0.362547,-0.165549 -0.829854,0.276658 -0.178281,0.168703 -0.255079,0.318641 -0.205618,0.40145 0.168772,0.282612 3.970254,4.791002 4.039774,4.791002 0.04055,0 0.269041,-0.173495 0.507778,-0.385543 z m 14.889873,0.0094 c 0.357369,-0.261955 0.637733,-0.813974 0.63794,-1.256054 10e-5,-0.336335 -0.513413,-2.688491 -1.134438,-5.195801 -0.369274,-1.490863 -0.978006,-2.795207 -1.590237,-3.407443 -0.568355,-0.568356 -1.331335,-0.814466 -2.287089,-0.737748 l -0.657345,0.05274 0.208067,-0.221477 c 1.018005,-1.083614 0.454309,-2.846073 -1.041542,-3.256524 -1.044584,-0.286619 -2.136949,0.62289 -2.13106,1.774328 0.006,1.162622 1.074295,2.170429 2.120771,2.000608 l 0.352985,-0.05728 -0.276887,0.328363 c -0.410334,0.486612 -0.554155,0.914126 -0.554155,1.647162 0,0.622413 0.04781,0.75162 0.904728,2.445047 0.566846,1.120184 0.992859,2.114278 1.140698,2.661796 0.473228,1.752547 1.139601,2.851989 1.992021,3.286659 0.572872,0.292121 1.878705,0.2558 2.315543,-0.06441 z M 51.231307,55.57241 c -0.534882,-0.23262 -0.924564,-0.896539 -1.386522,-2.362217 -0.382776,-1.214485 -1.03235,-2.688242 -1.676926,-3.804641 -0.572512,-0.991576 -0.565828,-1.90662 0.0167,-2.288314 0.3351,-0.219569 1.226444,-0.212482 1.662905,0.0132 0.630752,0.326174 1.277915,1.628318 1.714063,3.448826 0.792092,3.306266 1.071984,4.626857 1.013114,4.780251 -0.135208,0.352354 -0.785646,0.455428 -1.343347,0.21288 z M 46.386926,44.897437 c -0.122077,-0.129949 -0.250981,-0.381339 -0.286438,-0.558645 -0.05195,-0.259771 -0.01325,-0.373611 0.199368,-0.586215 0.440129,-0.440135 1.003518,-0.303878 1.257564,0.304144 0.341095,0.816353 -0.575141,1.474441 -1.170494,0.840716 z m 9.607044,3.68286 c 1.446394,-0.341095 2.875826,-1.23229 4.362257,-2.719675 2.14497,-2.146364 3.230598,-4.488639 3.358813,-7.24673 l 0.05695,-1.225081 0.583982,-0.574097 c 0.736767,-0.724294 1.344551,-1.750988 1.742036,-2.942754 0.521873,-1.564745 0.674907,-2.645835 0.676142,-4.776657 0.0016,-2.228775 -0.115239,-2.737598 -0.76052,-3.320562 -0.348896,-0.315207 -0.39541,-0.41677 -0.44589,-0.973469 -0.117121,-1.291543 -1.63541,-4.489275 -3.035677,-6.393536 -0.313748,-0.426676 -1.060375,-1.261672 -1.659173,-1.855541 -2.05713,-2.040189 -4.459824,-3.383255 -7.444253,-4.161204 -1.189258,-0.310006 -2.062664,-0.439981 -4.131122,-0.614764 -0.904728,-0.07645 -1.922553,-0.212101 -2.261825,-0.301445 -1.221026,-0.321541 -3.699203,-0.115483 -6.27051,0.521375 -7.020735,1.738897 -12.720536,8.111468 -13.67886,15.293427 -0.190415,1.427031 -0.189307,2.432373 0.0042,3.624324 0.274893,1.694938 0.798526,2.826842 1.792149,3.874018 1.245134,1.312242 2.660932,1.977465 4.968376,2.33443 0.797397,0.12336 4.069442,0.08629 4.397163,-0.04983 0.125995,-0.05232 0.179135,0.07175 0.270277,0.630974 0.302251,1.854491 1.242102,3.098253 2.973138,3.934553 1.314696,0.635156 2.702777,0.82581 4.502861,0.618475 1.109921,-0.127845 1.171739,-0.124521 1.654466,0.08901 1.021844,0.452009 1.895387,1.420585 2.664325,2.954146 1.31512,2.622883 3.389695,3.820909 5.680876,3.280594 z m -2.080655,-1.118959 c -0.998823,-0.32681 -1.904044,-1.231018 -2.582799,-2.579894 -0.62817,-1.248352 -1.33856,-2.175847 -2.214192,-2.890896 l -0.386804,-0.315869 2.026306,-0.744946 c 2.142382,-0.787618 3.671522,-1.22161 5.275011,-1.497123 0.536774,-0.09223 1.438931,-0.331008 2.0048,-0.53062 0.705769,-0.248957 1.335555,-0.391622 2.005549,-0.454315 0.537181,-0.05025 1.342896,-0.185792 1.790473,-0.30118 0.447573,-0.115387 0.838426,-0.185135 0.868572,-0.15499 0.03016,0.03016 -0.0016,0.503607 -0.07117,1.052154 -0.293202,2.321427 -1.157321,4.10783 -2.835291,5.861395 -1.00072,1.045824 -1.933982,1.747898 -2.990212,2.249501 -0.687183,0.326343 -0.927071,0.386963 -1.636772,0.413604 -0.502886,0.01887 -0.998329,-0.02332 -1.253471,-0.106821 z M 43.93987,41.223804 c -1.731884,-0.231883 -3.120415,-0.988501 -3.805388,-2.073567 -0.582833,-0.92326 -0.813321,-2.811878 -0.549586,-4.503179 0.322754,-2.069805 2.092921,-3.90806 5.19887,-5.398875 1.492899,-0.716566 4.413776,-1.805449 5.901687,-2.200103 3.38433,-0.897662 7.306384,-1.146221 10.665197,-0.675914 1.651021,0.231178 2.105245,0.364832 2.266638,0.666929 0.242156,0.453292 0.09989,3.219228 -0.230038,4.472249 -0.508335,1.930595 -1.623366,3.792317 -2.888548,4.822933 -1.366554,1.113187 -2.606652,1.643388 -4.84146,2.069964 -1.790903,0.341842 -3.362417,0.794116 -5.328501,1.533507 -1.718367,0.64623 -3.49305,1.142458 -4.423964,1.237003 -0.339271,0.03446 -0.778786,0.07852 -0.976697,0.09792 -0.19791,0.0194 -0.642604,-0.0026 -0.98821,-0.04887 z m 18.02432,-4.773169 c 1.279865,-1.388992 2.183638,-3.211234 2.628189,-5.29913 0.247812,-1.163857 0.309582,-3.966034 0.09816,-4.453049 -0.123694,-0.284944 -0.120752,-0.28876 0.198339,-0.257025 0.481752,0.04792 0.686166,0.40373 0.815871,1.420145 0.251093,1.967701 -0.213722,4.929702 -1.044149,6.653815 -0.656423,1.362838 -1.533168,2.141641 -2.850722,2.532245 l -0.544545,0.161436 z M 33.927385,36.046174 c -3.683581,-0.568716 -5.533196,-2.438495 -5.836942,-5.900552 -0.283931,-3.236279 0.722015,-6.664077 2.93316,-9.994812 0.9334,-1.406028 3.003268,-3.547022 4.29172,-4.439187 2.291239,-1.586537 4.582017,-2.539078 7.279583,-3.026973 1.139909,-0.206169 4.329748,-0.258838 4.638079,-0.07658 0.182363,0.107797 0.155138,0.154481 -0.359839,0.616837 -1.34561,1.20814 -2.420854,2.37576 -2.732911,2.96771 -0.935309,1.774185 -0.486316,3.317573 1.345366,4.624626 0.910793,0.649935 1.871147,1.693708 2.195736,2.386489 0.235768,0.503204 0.279563,0.733947 0.27916,1.47073 0,0.744787 -0.04415,0.968592 -0.296091,1.51496 -0.162597,0.352587 -0.360751,0.695124 -0.440347,0.761183 -0.07961,0.06606 -0.570927,0.291745 -1.091846,0.501513 -1.264328,0.509146 -3.130805,1.452124 -4.025069,2.033536 -0.399309,0.259617 -1.146953,0.891004 -1.661426,1.403076 -1.313605,1.307482 -1.859878,2.479678 -2.04505,4.388269 l -0.06611,0.681347 -0.430117,0.06577 c -0.930405,0.142268 -3.119843,0.154407 -3.97706,0.02205 z M 48.897194,26.012719 c 0.698008,-2.025961 -0.180587,-4.092887 -2.501304,-5.88441 -1.320453,-1.019347 -1.620165,-1.433185 -1.614509,-2.229226 0.0073,-1.031618 0.666691,-1.976436 2.413603,-3.458552 0.579954,-0.492046 0.970394,-0.912356 1.091496,-1.17501 0.179092,-0.388437 0.211735,-0.408893 0.651202,-0.408124 0.874524,0.0016 2.52961,0.187505 3.532456,0.396923 4.777558,0.997672 8.387454,3.755964 10.640358,8.130212 0.783319,1.520918 1.334219,2.917194 1.372607,3.478992 0.03011,0.440692 0.02725,0.444763 -0.423867,0.599663 -0.418046,0.14354 -0.557711,0.138679 -1.754937,-0.0611 -2.555198,-0.426385 -6.133548,-0.451044 -8.740158,-0.06024 -1.334579,0.200094 -3.193402,0.611637 -3.971128,0.879216 -0.834811,0.287218 -0.863589,0.278598 -0.695819,-0.208344 z"
     id="path825"
     inkscape:connector-curvature="0" />
</svg>
