<?xml version="1.0" encoding="UTF-8" standalone="no"?>
<!-- Created with Inkscape (http://www.inkscape.org/) -->

<svg
   xmlns:dc="http://purl.org/dc/elements/1.1/"
   xmlns:cc="http://creativecommons.org/ns#"
   xmlns:rdf="http://www.w3.org/1999/02/22-rdf-syntax-ns#"
   xmlns:svg="http://www.w3.org/2000/svg"
   xmlns="http://www.w3.org/2000/svg"
   xmlns:sodipodi="http://sodipodi.sourceforge.net/DTD/sodipodi-0.dtd"
   xmlns:inkscape="http://www.inkscape.org/namespaces/inkscape"
   version="1.1"
   id="svg815"
   width="162.14449"
   height="164.27797"
   viewBox="0 0 162.14449 164.27797"
   sodipodi:docname="favicon.svg"
   inkscape:version="0.92.4 (f8dce91, 2019-08-02)">
  <metadata
     id="metadata821">
    <rdf:RDF>
      <cc:Work
         rdf:about="">
        <dc:format>image/svg+xml</dc:format>
        <dc:type
           rdf:resource="http://purl.org/dc/dcmitype/StillImage" />
        <dc:title></dc:title>
      </cc:Work>
    </rdf:RDF>
  </metadata>
  <defs
     id="defs819" />
  <sodipodi:namedview
     pagecolor="#ffffff"
     bordercolor="#666666"
     borderopacity="1"
     objecttolerance="10"
     gridtolerance="10"
     guidetolerance="10"
     inkscape:pageopacity="0"
     inkscape:pageshadow="2"
     inkscape:window-width="1920"
     inkscape:window-height="960"
     id="namedview817"
     showgrid="false"
     inkscape:zoom="3.6788666"
     inkscape:cx="55.020196"
     inkscape:cy="70.29449"
     inkscape:window-x="0"
     inkscape:window-y="27"
     inkscape:window-maximized="1"
     inkscape:current-layer="svg815"
     fit-margin-top="0"
     fit-margin-left="0"
     fit-margin-right="0"
     fit-margin-bottom="0" />
  <path
     style="fill:#000000;stroke-width:0.19395274"
     d="M 0,82.13899 V 0 h 81.07225 81.07224 v 82.13899 82.13898 H 81.07225 0 Z m 36.65707,71.81728 c 1.04378,-0.31612 1.67129,-0.84716 2.01443,-1.70479 0.61002,-1.52458 0.34243,-2.32601 -0.77666,-2.32601 -1.00117,0 -1.23777,0.16936 -1.23777,0.88598 0,1.08871 -0.57325,1.44145 -2.34252,1.44145 -2.09613,0 -2.37517,-0.2487 -2.47397,-2.20495 l -0.0743,-1.47124 3.5606,-0.0529 3.56063,-0.053 0.0558,-1.79476 c 0.0702,-2.25771 -0.16203,-3.14267 -1.02293,-3.89855 -0.84879,-0.74524 -1.75387,-0.99561 -3.60401,-0.99697 -2.86008,-0.002 -4.46756,0.93643 -4.74234,2.76887 -0.0698,0.46574 -0.0976,2.3241 -0.0616,4.12968 0.0744,3.736 0.25154,4.2968 1.57397,4.9829 1.32582,0.68786 3.83367,0.82034 5.57069,0.29428 z m -4.84882,-7.88092 c 0,-1.07826 0.3357,-1.88242 0.89156,-2.13568 0.2664,-0.12138 1.05154,-0.22069 1.74474,-0.22069 1.07958,0 1.32868,0.0683 1.73644,0.47607 0.39099,0.39098 0.47608,0.66827 0.47608,1.55162 v 1.07555 h -2.42441 -2.42441 z m 14.46234,8.10211 c 0.63296,-0.1149 1.52179,-0.42405 1.97516,-0.68701 0.75703,-0.43908 0.8243,-0.44894 0.8243,-0.1208 0,0.53006 0.38765,0.82278 1.08966,0.82278 1.31314,0 1.23777,0.37917 1.23777,-6.22724 v -5.99178 h -1.16372 -1.16371 v 4.43085 c 0,4.00812 -0.0331,4.46077 -0.34652,4.74444 -0.97549,0.8828 -3.43686,1.23249 -4.14762,0.58926 -0.32394,-0.29316 -0.35495,-0.70935 -0.35765,-4.80033 -0.002,-2.46364 -0.0754,-4.59347 -0.16383,-4.73296 -0.10854,-0.17114 -0.50184,-0.23422 -1.20924,-0.19396 l -1.04837,0.0597 -0.054,4.75184 c -0.0453,3.98641 -0.004,4.88423 0.25753,5.57369 0.36718,0.96845 1.11517,1.55808 2.26368,1.78441 0.45651,0.09 0.8358,0.17312 0.84288,0.18481 0.007,0.0117 0.53076,-0.0728 1.16372,-0.18767 z m 24.53933,-0.29623 c 1.01701,-0.32115 1.77053,-1.04107 2.08992,-1.99669 0.13027,-0.38979 0.22034,-2.0181 0.22034,-3.98342 0,-3.06154 -0.0345,-3.3925 -0.43639,-4.18953 -0.6254,-1.24018 -1.82826,-1.81047 -4.01742,-1.90469 -2.86185,-0.12318 -4.54629,0.5418 -5.17322,2.04226 -0.3811,0.9121 -0.37472,7.62942 0.008,8.36488 0.30916,0.59422 0.97492,1.24121 1.6189,1.57327 1.1533,0.59468 3.95753,0.64097 5.68992,0.0939 z m -4.40746,-1.8452 c -0.71421,-0.36302 -0.84643,-1.01056 -0.84643,-4.14538 0,-2.87722 0.0171,-3.0062 0.46808,-3.53051 0.43925,-0.51064 0.56229,-0.54418 1.99655,-0.54418 1.1366,0 1.66301,0.0882 2.0533,0.34388 l 0.52484,0.34389 v 3.45662 c 0,4.20867 0.0217,4.16861 -2.29871,4.24037 -0.81586,0.0252 -1.6698,-0.0489 -1.89763,-0.16469 z m 16.22141,1.92024 c 1.63913,-0.49642 2.32743,-1.48871 2.32743,-3.35537 0,-1.22828 -0.33622,-2.02149 -1.05702,-2.49378 -0.27223,-0.17838 -1.59664,-0.70832 -2.94312,-1.17764 -1.34648,-0.46932 -2.5421,-0.94729 -2.65696,-1.06214 -0.32813,-0.32812 -0.2474,-1.53347 0.12782,-1.90869 0.26294,-0.26295 0.67329,-0.33665 1.87442,-0.33665 1.77129,0 2.11819,0.20914 2.31061,1.39299 l 0.12037,0.74049 h 0.96647 0.96648 l -0.008,-1.01487 c -0.01,-1.20721 -0.42984,-1.87297 -1.55453,-2.46297 -0.63214,-0.33161 -1.11806,-0.40121 -2.8013,-0.40121 -1.68324,0 -2.16919,0.0696 -2.80132,0.40121 -1.24675,0.65403 -1.56262,1.24014 -1.56262,2.89944 0,1.36042 0.0316,1.46227 0.65304,2.10341 0.50814,0.52427 1.17516,0.85621 3.00627,1.49605 1.29426,0.45226 2.50596,0.95295 2.69264,1.11264 0.22605,0.19338 0.33942,0.57017 0.33942,1.12811 0,0.74337 -0.0688,0.8733 -0.61043,1.15341 -0.44789,0.23161 -0.98561,0.29672 -2.01936,0.24452 -1.67262,-0.0845 -2.21903,-0.44226 -2.21903,-1.45307 v -0.64878 h -1.09077 -1.09075 l 0.0888,1.07104 c 0.0696,0.83934 0.20743,1.19485 0.63719,1.64341 1.13538,1.1851 4.04299,1.6133 6.30432,0.92845 z m 11.83112,0 c 0.37335,-0.11308 0.91204,-0.36914 1.19709,-0.56903 0.65027,-0.456 1.17702,-1.80146 1.09552,-2.79826 l -0.0622,-0.76049 h -1.06674 -1.06674 l -0.11414,0.85533 c -0.16228,1.21606 -0.66793,1.56908 -2.24754,1.56908 -1.21118,0 -1.94572,-0.21606 -2.24173,-0.65938 -0.0784,-0.11738 -0.14383,-1.74908 -0.14546,-3.62601 -0.003,-3.19961 0.0219,-3.43513 0.39591,-3.77358 0.56152,-0.50817 2.62094,-0.62835 3.44703,-0.20116 0.56467,0.29201 0.69786,0.53732 0.8517,1.56876 0.0481,0.32219 0.23042,0.39785 1.07646,0.44661 1.19318,0.0687 1.31989,-0.0927 1.11981,-1.42694 -0.27976,-1.86551 -1.84149,-2.80175 -4.67359,-2.80175 -1.74642,0 -3.00361,0.34422 -3.7429,1.02481 -0.88169,0.81167 -0.99878,1.42501 -0.99878,5.23133 0,3.30248 0.0308,3.61354 0.4364,4.40742 0.50753,0.99341 1.38781,1.52217 2.91474,1.75083 1.14576,0.17157 2.81685,0.0678 3.82512,-0.23757 z m 17.49541,0.0216 c 1.49203,-0.38122 2.36096,-1.57919 2.25173,-3.10443 l -0.0609,-0.85103 h -0.96649 -0.96646 l -0.12415,0.76381 c -0.18659,1.14787 -0.70805,1.46665 -2.39916,1.46665 -1.12974,0 -1.50769,-0.0792 -1.91804,-0.40198 -0.46987,-0.36961 -0.51102,-0.51765 -0.51102,-1.83808 v -1.43609 l 3.44266,-0.053 3.44266,-0.053 0.0543,-2.24161 c 0.05,-2.06322 0.019,-2.29474 -0.39046,-2.90929 -0.7581,-1.13803 -1.65149,-1.44349 -4.22173,-1.44349 -2.02225,0 -2.31013,0.0453 -3.08397,0.48488 -1.49527,0.84949 -1.59264,1.22219 -1.52902,5.85344 0.0512,3.72744 0.0839,4.04955 0.46327,4.55789 0.2245,0.30085 0.67205,0.70155 0.99455,0.89043 1.12584,0.65939 3.61773,0.80145 5.52227,0.31483 z m -4.69453,-8.23123 c 0,-0.88335 0.0851,-1.16064 0.47605,-1.55162 0.4092,-0.40921 0.65572,-0.47607 1.75522,-0.47607 2.08955,0 2.60903,0.45273 2.61489,2.27894 l 0.003,0.8243 h -2.42441 -2.42441 z m 29.86872,8.21251 c 1.62074,-0.48388 2.43282,-1.67137 2.29428,-3.35488 l -0.0638,-0.77581 h -1.06674 -1.06674 l -0.0594,0.81878 c -0.0871,1.2011 -0.68296,1.60563 -2.36504,1.60563 -1.02692,0 -1.41436,-0.0857 -1.8164,-0.40198 l -0.51103,-0.40198 v -3.44702 c 0,-4.22507 -0.0217,-4.18596 2.32743,-4.18596 1.77696,0 2.27127,0.29815 2.36543,1.42673 l 0.059,0.70675 h 1.06674 1.06674 l 0.0541,-0.87279 c 0.0728,-1.17453 -0.44953,-2.10265 -1.528,-2.71534 -0.77383,-0.43962 -1.0617,-0.48488 -3.08395,-0.48488 -1.84672,0 -2.36178,0.0667 -2.99375,0.3879 -1.55748,0.79152 -1.84587,1.68549 -1.8457,5.72161 1.6e-4,4.02881 0.29887,4.97224 1.82568,5.76621 1.1597,0.60307 3.68664,0.70101 5.34121,0.20703 z m 11.83111,-0.003 c 0.37336,-0.11307 0.90892,-0.3669 1.19014,-0.56407 0.88675,-0.6217 1.46161,-2.67693 0.90455,-3.23398 -0.12801,-0.12801 -0.54694,-0.23274 -0.93097,-0.23274 -0.83687,0 -1.16372,0.28115 -1.16372,1.00099 0,0.95811 -0.64444,1.32643 -2.32085,1.32643 -2.13057,0 -2.33401,-0.18654 -2.33401,-2.14 v -1.53615 l 3.44266,-0.053 3.44266,-0.053 0.0555,-2.00925 c 0.0469,-1.6989 -0.005,-2.13528 -0.33944,-2.8251 -0.60142,-1.24236 -1.61124,-1.72552 -3.80954,-1.82274 -2.94108,-0.13006 -4.52604,0.57751 -5.09291,2.27361 -0.27516,0.82332 -0.29271,6.83047 -0.0228,7.8022 0.21752,0.78308 1.00278,1.66597 1.74199,1.95855 1.30131,0.51506 3.72771,0.56519 5.23672,0.10818 z m -4.65189,-8.24927 c 0.002,-0.61338 0.0671,-1.21126 0.14546,-1.32864 0.29576,-0.44293 1.0301,-0.65938 2.23707,-0.65938 1.7999,0 2.26936,0.40414 2.26936,1.9536 v 1.14964 h -2.32743 -2.32743 l 0.003,-1.11522 z M 16.955,154.07458 c 0.27033,-0.10374 0.3068,-0.81051 0.3068,-5.94839 v -5.83066 l 3.3059,5.79686 c 1.81825,3.18828 3.41109,5.86371 3.53964,5.94542 0.28106,0.17864 1.34231,0.20069 1.76949,0.0368 0.27308,-0.10479 0.30679,-1.02128 0.30679,-8.33997 v -8.22224 h -1.16371 -1.16372 v 5.86705 5.86704 l -1.02232,-1.84252 c -0.56227,-1.01339 -2.05914,-3.65753 -3.32635,-5.87586 l -2.30404,-4.03333 -1.08608,0.0573 -1.08606,0.0573 -0.0507,8.02655 c -0.0364,5.76412 0.0113,8.10122 0.1692,8.29148 0.22592,0.27221 1.25967,0.35651 1.80512,0.1472 z m 39.95427,0 c 0.26705,-0.10248 0.30679,-0.67779 0.30679,-4.44248 v -4.32476 l 0.8243,-0.48193 c 0.7673,-0.4486 1.59416,-0.7338 2.91965,-1.00705 0.51413,-0.10599 0.54054,-0.16194 0.48488,-1.02707 -0.057,-0.88583 -0.0799,-0.91699 -0.71999,-0.97805 -0.79723,-0.0761 -2.15662,0.41437 -2.91321,1.051 l -0.55277,0.46512 -0.12719,-0.67804 c -0.12688,-0.67633 -0.12987,-0.67803 -1.18515,-0.67803 h -1.05795 v 5.99637 c 0,4.61562 0.0558,6.0189 0.24244,6.0942 0.35088,0.14158 1.42035,0.14803 1.7782,0.0107 z m 44.70114,-0.14811 c 0.15663,-0.18873 0.2057,-1.94683 0.16922,-6.06102 l -0.0514,-5.79519 -1.04839,-0.0597 c -0.70738,-0.0403 -1.1007,0.0228 -1.20924,0.19396 -0.0885,0.13949 -0.16218,2.80218 -0.16381,5.9171 -0.003,5.19103 0.0254,5.67997 0.33645,5.86117 0.4939,0.28767 1.71061,0.25281 1.96719,-0.0563 z m 17.83692,0.008 c 0.13819,-0.16651 0.23241,-1.79691 0.2662,-4.60638 l 0.0523,-4.34865 1.05303,-0.53337 c 1.40491,-0.7116 2.74,-0.73399 3.41669,-0.0573 l 0.47607,0.47606 v 4.54596 c 0,4.97301 -0.0466,4.78141 1.16372,4.78141 1.21631,0 1.16372,0.23557 1.16372,-5.21201 0,-5.6386 -0.0663,-5.9432 -1.47484,-6.77373 -1.0713,-0.63169 -3.4073,-0.53072 -4.85349,0.20979 -1.03162,0.52822 -1.23583,0.51376 -1.23583,-0.0875 0,-0.30084 -0.161,-0.35557 -1.04599,-0.35557 -0.7749,0 -1.07651,0.0795 -1.16372,0.30679 -0.0648,0.16873 -0.11772,2.78086 -0.11772,5.80473 0,6.15786 -0.0111,6.1075 1.34777,6.1075 0.406,0 0.83447,-0.11598 0.9521,-0.25774 z M 101.72821,138.579 v -1.55162 l -0.93634,-0.0597 c -1.27823,-0.0815 -1.48807,0.14357 -1.48807,1.59631 0,1.4832 0.192,1.69768 1.45345,1.62365 l 0.97096,-0.057 z m -58.65319,-8.0883 c 1.82526,-0.91194 3.91087,-3.05598 4.36062,-4.48277 0.54802,-1.73851 0.36784,-2.08098 -3.56564,-6.77718 -1.88697,-2.25286 -3.66437,-4.26641 -3.94977,-4.47457 -0.28542,-0.20815 -0.9655,-0.42137 -1.5113,-0.47381 -0.85588,-0.0822 -1.18466,-1.4e-4 -2.39037,0.59692 -1.61413,0.7993 -3.58665,2.62822 -4.19912,3.89341 -0.42468,0.87726 -0.51678,2.11273 -0.21643,2.90275 0.28117,0.73952 6.92832,8.62645 7.63208,9.05555 0.97347,0.59355 2.34243,0.50788 3.83993,-0.2403 z m -2.45617,-1.89364 c -0.34821,-0.14091 -5.41912,-6.0317 -6.34554,-7.3715 -0.66013,-0.95471 -0.31309,-2.18583 0.92182,-3.27011 1.03338,-0.90731 1.76936,-1.2248 2.68505,-1.15826 0.7999,0.0581 0.86578,0.12175 3.97222,3.83571 1.73736,2.07713 3.21266,3.99107 3.27845,4.25319 0.26038,1.03741 -1.26006,2.91538 -2.92279,3.61012 -0.77007,0.32176 -1.00629,0.33675 -1.58921,0.10085 z m 15.20428,-2.18161 c 0.44609,-0.34285 0.81107,-0.68603 0.81107,-0.76262 0,-0.0766 -0.79185,-1.10004 -1.75965,-2.27432 -0.96783,-1.17429 -1.77516,-2.20333 -1.79407,-2.28677 -0.019,-0.0834 0.32835,-0.21363 0.7717,-0.28932 1.52585,-0.26047 3.45422,-1.54742 4.05263,-2.70459 0.37145,-0.71832 0.35619,-1.79261 -0.0364,-2.56035 -0.51615,-1.00942 -4.87549,-6.11574 -5.49429,-6.43573 -1.9193,-0.9925 -4.53871,0.59557 -5.64362,3.42157 -0.26533,0.67857 -0.33478,0.73706 -0.55715,0.46911 -0.34684,-0.41793 -0.54772,-0.38781 -1.31457,0.19709 -0.43494,0.33175 -0.63944,0.6355 -0.60017,0.89147 0.056,0.36504 10.39635,12.95782 10.64007,12.95782 0.0624,0 0.47835,-0.28051 0.92444,-0.62336 z m -5.99836,-9.11017 c -2.04699,-2.48459 -1.98574,-2.37271 -1.72753,-3.15508 0.5189,-1.57231 2.05784,-2.98072 2.99886,-2.74453 0.24151,0.0606 1.30297,1.16017 2.40245,2.48868 2.35305,2.84319 2.44966,3.20164 1.1603,4.30527 -0.44638,0.3821 -1.12279,0.78117 -1.50313,0.88682 -1.46111,0.40589 -1.58262,0.34092 -3.33095,-1.78116 z m 13.03547,-3.48333 c 0.95081,-0.3202 2.95144,-1.78189 3.60595,-2.63456 1.07847,-1.40501 1.28944,-2.46767 0.71505,-3.60197 -0.72362,-1.429 -1.24621,-1.6194 -2.07381,-0.75556 -0.58715,0.61285 -0.65775,1.04074 -0.23024,1.39554 0.72453,0.60131 0.15755,1.85963 -1.32029,2.93017 -1.30251,0.94353 -1.63099,0.82821 -3.37424,-1.1846 l -0.41994,-0.48488 2.5954,-2.13348 c 1.42747,-1.17341 2.60005,-2.2516 2.60573,-2.39598 0.0175,-0.4438 -2.46518,-3.25965 -3.16793,-3.59312 -0.94358,-0.44776 -1.60175,-0.39249 -2.95613,0.24824 -1.32768,0.6281 -3.11028,2.28187 -3.62199,3.36022 -0.40433,0.85208 -0.41977,1.81445 -0.0408,2.54113 0.5623,1.07808 4.82451,5.99719 5.42169,6.25728 0.74001,0.32229 1.41211,0.33762 2.26151,0.0516 z m -4.83677,-6.46298 c -0.31859,-0.36284 -0.63506,-0.83564 -0.70332,-1.05066 -0.16999,-0.53561 0.32462,-1.419 1.20104,-2.14503 1.28187,-1.06191 2.191,-1.03442 3.05033,0.0922 0.62643,0.82128 0.66282,0.75861 -1.46137,2.51601 l -1.50746,1.24715 z m 13.92615,-0.83066 0.81885,-0.72732 -0.44865,-0.58186 c -0.24675,-0.32002 -1.52043,-1.86486 -2.83041,-3.43298 -1.30998,-1.56812 -2.38176,-2.94371 -2.38176,-3.05687 0,-0.46907 0.89001,-2.04836 1.49569,-2.65403 0.4785,-0.47851 0.82212,-0.65073 1.29837,-0.65073 0.7506,0 0.95018,0.19741 4.36274,4.31545 1.21548,1.46677 2.30817,2.66685 2.42819,2.66685 0.29585,0 1.66427,-1.14254 1.66427,-1.38957 0,-0.10869 -1.39625,-1.87528 -3.10276,-3.92576 -3.1362,-3.76833 -3.83512,-4.38231 -4.9886,-4.38231 -1.40668,0 -3.63627,1.92278 -4.25736,3.67152 -0.31659,0.89135 -0.33511,0.90644 -0.68415,0.5574 -0.40524,-0.40523 -0.68395,-0.31231 -1.56553,0.52192 -0.33633,0.31826 -0.48121,0.60112 -0.3879,0.75734 0.31839,0.53315 7.48993,9.03828 7.62108,9.03828 0.0765,0 0.50755,-0.3273 0.95793,-0.72733 z m 28.08992,0.0178 c 0.67418,-0.49418 1.20309,-1.53557 1.20348,-2.36956 1.9e-4,-0.6345 -0.96856,-5.07187 -2.14013,-9.80194 -0.69664,-2.81253 -1.84502,-5.27319 -3,-6.42818 -1.07221,-1.07221 -2.51158,-1.5365 -4.31462,-1.39177 l -1.24009,0.0995 0.39252,-0.41782 c 1.92048,-2.04425 0.85706,-5.36915 -1.96488,-6.14347 -1.97062,-0.54071 -4.03138,1.17509 -4.02027,3.34729 0.0113,2.1933 2.02667,4.09454 4.00086,3.77417 l 0.66591,-0.10806 -0.52235,0.61946 c -0.7741,0.918 -1.04542,1.72451 -1.04542,3.10739 0,1.17419 0.0902,1.41794 1.70678,4.61261 1.06936,2.11324 1.87304,3.98861 2.15194,5.02151 0.89275,3.3062 2.14987,5.38031 3.75797,6.20032 1.08073,0.55109 3.5442,0.48257 4.3683,-0.1215 z m -3.39108,-1.70804 c -1.00906,-0.43884 -1.7442,-1.69133 -2.61569,-4.45635 -0.72211,-2.29114 -1.94754,-5.0714 -3.16354,-7.1775 -1.08005,-1.87062 -1.06744,-3.59686 0.0315,-4.31693 0.63217,-0.41422 2.3137,-0.40085 3.13709,0.0249 1.18992,0.61533 2.4108,3.07184 3.2336,6.50625 1.49429,6.23731 2.02231,8.72862 1.91125,9.018 -0.25507,0.66472 -1.48213,0.85917 -2.53424,0.4016 z M 87.50948,84.69954 c -0.2303,-0.24515 -0.47348,-0.7194 -0.54037,-1.05389 -0.098,-0.49006 -0.025,-0.70482 0.37611,-1.1059 0.83031,-0.83032 1.89315,-0.57327 2.37241,0.57377 0.64348,1.54006 -1.08501,2.78155 -2.20815,1.58602 z m 18.1238,6.94776 c 2.72864,-0.64348 5.42528,-2.32473 8.22945,-5.1307 4.04651,-4.04914 6.09456,-8.46787 6.33644,-13.67104 l 0.10743,-2.31113 1.10169,-1.08304 c 1.38992,-1.36639 2.53651,-3.30326 3.28637,-5.55154 0.98452,-2.95191 1.27322,-4.9914 1.27555,-9.01122 0.003,-4.20461 -0.2174,-5.16451 -1.43473,-6.26428 -0.65819,-0.59464 -0.74594,-0.78624 -0.84117,-1.83646 -0.22095,-2.43651 -3.08522,-8.46907 -5.72684,-12.06148 -0.59189,-0.80493 -2.00041,-2.38016 -3.13005,-3.5005 -3.8808,-3.84884 -8.41351,-6.38255 -14.04367,-7.85016 -2.24355,-0.58483 -3.89124,-0.83003 -7.79341,-1.15976 -1.70678,-0.14423 -3.62692,-0.40013 -4.26696,-0.56868 -2.30348,-0.60659 -6.97859,-0.21786 -11.82939,0.98358 -13.2447,3.28045 -23.99744,15.30238 -25.80533,28.85123 -0.35922,2.69211 -0.35713,4.5887 0.008,6.83733 0.51859,3.19752 1.50643,5.33287 3.38091,7.30838 2.34896,2.47556 5.01988,3.73051 9.3729,4.40393 1.5043,0.23272 7.67705,0.16279 8.2953,-0.094 0.23769,-0.0987 0.33794,0.13536 0.50988,1.19034 0.5702,3.49852 2.34324,5.84489 5.60886,7.42258 2.48019,1.19823 5.09882,1.5579 8.4947,1.16676 2.09388,-0.24118 2.2105,-0.23491 3.12117,0.16792 1.92772,0.85272 3.57567,2.67995 5.02628,5.57303 2.48099,4.9481 6.3947,7.20819 10.71704,6.18888 z m -3.92518,-2.11093 c -1.88429,-0.61653 -3.592,-2.32233 -4.87248,-4.867 -1.18505,-2.35503 -2.52521,-4.10476 -4.1771,-5.45371 l -0.72971,-0.59589 3.82265,-1.40535 c 4.04163,-1.48585 6.92637,-2.30458 9.95137,-2.82434 1.01263,-0.17399 2.71456,-0.62445 3.78208,-1.00102 1.33144,-0.46966 2.51954,-0.7388 3.78349,-0.85707 1.0134,-0.0948 2.53339,-0.3505 3.37775,-0.56818 0.84435,-0.21768 1.5817,-0.34926 1.63857,-0.29239 0.0569,0.0569 -0.003,0.95006 -0.13426,1.9849 -0.55313,4.3794 -2.1833,7.74947 -5.34881,11.05759 -1.88787,1.97296 -3.64848,3.29743 -5.64107,4.24371 -1.29638,0.61565 -1.74893,0.73001 -3.08779,0.78027 -0.9487,0.0356 -1.88336,-0.044 -2.36469,-0.20152 z M 82.89308,77.76919 c -3.26722,-0.43745 -5.8867,-1.86482 -7.17891,-3.91181 -1.09952,-1.74174 -1.53434,-5.30464 -1.0368,-8.4953 0.60888,-3.90471 3.94832,-7.3726 9.80773,-10.18504 2.81637,-1.35181 8.32664,-3.406 11.1336,-4.15052 6.38458,-1.69345 13.78358,-2.16236 20.12002,-1.27512 3.11467,0.43612 3.97157,0.68826 4.27604,1.25817 0.45683,0.85514 0.18844,6.07311 -0.43397,8.43695 -0.95898,3.64209 -3.0625,7.15425 -5.44928,9.09852 -2.57802,2.10004 -4.91748,3.10027 -9.13347,3.90501 -3.37856,0.64489 -6.34324,1.49811 -10.05228,2.89298 -3.24172,1.21912 -6.58968,2.15526 -8.34586,2.33362 -0.64004,0.065 -1.46919,0.14813 -1.84255,0.18472 -0.37336,0.0366 -1.21228,-0.005 -1.86427,-0.0922 z m 34.00309,-9.00464 c 2.41448,-2.62035 4.11946,-6.05803 4.95811,-9.99687 0.4675,-2.19563 0.58403,-7.48197 0.18517,-8.40073 -0.23335,-0.53755 -0.2278,-0.54475 0.37417,-0.48488 0.90883,0.0904 1.29446,0.76164 1.53915,2.67912 0.47369,3.71209 -0.40319,9.29994 -1.9698,12.5525 -1.23835,2.57101 -2.89234,4.04023 -5.37792,4.77711 l -1.02729,0.30455 z M 64.00441,68.00153 C 57.05529,66.92864 53.56597,63.40128 52.99295,56.87007 c -0.53564,-6.10528 1.36209,-12.57186 5.53344,-18.85533 1.76087,-2.65249 5.6657,-6.6915 8.09638,-8.37458 4.32245,-2.99302 8.64403,-4.79 13.73302,-5.71042 2.15045,-0.38894 8.16812,-0.4883 8.74979,-0.14447 0.34403,0.20336 0.29267,0.29143 -0.67884,1.16367 -2.53851,2.27917 -4.56697,4.4819 -5.15567,5.59862 -1.76447,3.34702 -0.91744,6.25864 2.53805,8.72441 1.71822,1.22611 3.52994,3.1952 4.14228,4.50214 0.44478,0.9493 0.5274,1.3846 0.52664,2.77455 0,1.40505 -0.0833,1.82726 -0.55858,2.85799 -0.30674,0.66516 -0.68056,1.31136 -0.83072,1.43598 -0.15018,0.12463 -1.07706,0.55038 -2.05978,0.94611 -2.38517,0.96051 -5.9063,2.73945 -7.59334,3.83629 -0.7533,0.48977 -2.16374,1.68089 -3.1343,2.64692 -2.47813,2.46658 -3.50868,4.67794 -3.85801,8.27852 l -0.12471,1.28537 -0.81142,0.12407 c -1.75522,0.26839 -5.88562,0.29129 -7.50277,0.0416 z M 92.24513,49.0733 c 1.3168,-3.822 -0.34068,-7.72128 -4.71874,-11.10101 -2.49105,-1.92301 -3.05646,-2.70372 -3.04579,-4.20546 0.0138,-1.94616 1.25772,-3.72857 4.55329,-6.5246 1.09409,-0.92825 1.83066,-1.72117 2.05912,-2.21667 0.33786,-0.73279 0.39944,-0.77138 1.2285,-0.76993 1.6498,0.003 4.77214,0.35373 6.66402,0.7488 9.01292,1.88212 15.82303,7.08567 20.07316,15.33774 1.47774,2.86923 2.51702,5.50332 2.58944,6.56316 0.0568,0.83137 0.0514,0.83905 -0.79963,1.13127 -0.78865,0.27079 -1.05213,0.26162 -3.31071,-0.11526 -4.82041,-0.80438 -11.57101,-0.8509 -16.48841,-0.11365 -2.5177,0.37748 -6.02439,1.15386 -7.49158,1.65865 -1.57488,0.54184 -1.62917,0.52558 -1.31267,-0.39304 z"
     id="path825"
     inkscape:connector-curvature="0" />
</svg>
